# xmcd
#
# Track frame offsets:
#	150
#	21868
#	42925
#	65865
#	86725
#	108895
#	132398
#	155658
#	174560
#	195288
#
# Disc length: 2890 seconds
#
# Revision: 1
# Processed by: cddbd v1.5.2PL0 Copyright (c) Steve Scherf et al.
# Submitted via: EasyCDDAExtractor 15.3.0.1
#
DISCID=850b480a
DTITLE=Domingo Quiñones - En La Intimidad
DYEAR=1993
DGENRE=Latin
TTITLE0=Fuera De Control
TTITLE1=A Pesar De La Distancia
TTITLE2=Falta De Valor
TTITLE3=Cuando Se Necisitan Mas
TTITLE4=No Te Menti
TTITLE5=En La Intimidad
TTITLE6=Pasaras Al Libro Del Recuerdo
TTITLE7=Lugares
TTITLE8=Amor En Secreto
TTITLE9=Dejate Tenerme
EXTD=
EXTT0=
EXTT1=
EXTT2=
EXTT3=
EXTT4=
EXTT5=
EXTT6=
EXTT7=
EXTT8=
EXTT9=
PLAYORDER=
